<mxfile host="app.diagrams.net" agent="Mozilla/5.0 (Windows NT 10.0; Win64; x64) AppleWebKit/537.36 (KHTML, like Gecko) Chrome/128.0.0.0 Safari/537.36" version="24.7.12">
  <diagram id="C5RBs43oDa-KdzZeNtuy" name="Page-1">
    <mxGraphModel dx="1050" dy="607" grid="1" gridSize="10" guides="1" tooltips="1" connect="1" arrows="1" fold="1" page="1" pageScale="1" pageWidth="827" pageHeight="1169" background="#000000" math="0" shadow="0">
      <root>
        <mxCell id="WIyWlLk6GJQsqaUBKTNV-0" />
        <mxCell id="WIyWlLk6GJQsqaUBKTNV-1" parent="WIyWlLk6GJQsqaUBKTNV-0" />
        <mxCell id="zkfFHV4jXpPFQw0GAbJ--0" value="City&#xa;(Город)" style="swimlane;fontStyle=2;align=center;verticalAlign=top;childLayout=stackLayout;horizontal=1;startSize=50;horizontalStack=0;resizeParent=1;resizeLast=0;collapsible=1;marginBottom=0;rounded=1;shadow=0;strokeWidth=4;labelBackgroundColor=none;fillColor=#56517E;strokeColor=#EEEEEE;fontColor=#FFFFFF;" parent="WIyWlLk6GJQsqaUBKTNV-1" vertex="1">
          <mxGeometry x="200" y="40" width="155" height="164" as="geometry">
            <mxRectangle x="230" y="140" width="160" height="26" as="alternateBounds" />
          </mxGeometry>
        </mxCell>
        <mxCell id="zkfFHV4jXpPFQw0GAbJ--1" value="#id_city   int" style="text;align=left;verticalAlign=top;spacingLeft=4;spacingRight=4;overflow=hidden;rotatable=0;points=[[0,0.5],[1,0.5]];portConstraint=eastwest;labelBackgroundColor=none;fontColor=#FFFFFF;rounded=1;" parent="zkfFHV4jXpPFQw0GAbJ--0" vertex="1">
          <mxGeometry y="50" width="155" height="40" as="geometry" />
        </mxCell>
        <mxCell id="zkfFHV4jXpPFQw0GAbJ--2" value="+name_city varchar(15)" style="text;align=left;verticalAlign=top;spacingLeft=4;spacingRight=4;overflow=hidden;rotatable=0;points=[[0,0.5],[1,0.5]];portConstraint=eastwest;rounded=1;shadow=0;html=0;labelBackgroundColor=none;fontColor=#FFFFFF;" parent="zkfFHV4jXpPFQw0GAbJ--0" vertex="1">
          <mxGeometry y="90" width="155" height="34" as="geometry" />
        </mxCell>
        <mxCell id="zkfFHV4jXpPFQw0GAbJ--3" value="-status varchar(10)" style="text;align=left;verticalAlign=top;spacingLeft=4;spacingRight=4;overflow=hidden;rotatable=0;points=[[0,0.5],[1,0.5]];portConstraint=eastwest;rounded=1;shadow=0;html=0;labelBackgroundColor=none;fontColor=#FFFFFF;" parent="zkfFHV4jXpPFQw0GAbJ--0" vertex="1">
          <mxGeometry y="124" width="155" height="40" as="geometry" />
        </mxCell>
        <mxCell id="zkfFHV4jXpPFQw0GAbJ--6" value="Faculty&#xa;(Факультет)" style="swimlane;fontStyle=0;align=center;verticalAlign=top;childLayout=stackLayout;horizontal=1;startSize=40;horizontalStack=0;resizeParent=1;resizeLast=0;collapsible=1;marginBottom=0;rounded=1;shadow=0;strokeWidth=4;labelBackgroundColor=none;fillColor=#56517E;strokeColor=#EEEEEE;fontColor=#FFFFFF;" parent="WIyWlLk6GJQsqaUBKTNV-1" vertex="1">
          <mxGeometry x="254" y="320" width="160" height="110" as="geometry">
            <mxRectangle x="130" y="380" width="160" height="26" as="alternateBounds" />
          </mxGeometry>
        </mxCell>
        <mxCell id="zkfFHV4jXpPFQw0GAbJ--7" value="#id_falculty  int" style="text;align=left;verticalAlign=top;spacingLeft=4;spacingRight=4;overflow=hidden;rotatable=0;points=[[0,0.5],[1,0.5]];portConstraint=eastwest;labelBackgroundColor=none;fontColor=#FFFFFF;rounded=1;" parent="zkfFHV4jXpPFQw0GAbJ--6" vertex="1">
          <mxGeometry y="40" width="160" height="26" as="geometry" />
        </mxCell>
        <mxCell id="zkfFHV4jXpPFQw0GAbJ--8" value="+name_falculty varchar(20)" style="text;align=left;verticalAlign=top;spacingLeft=4;spacingRight=4;overflow=hidden;rotatable=0;points=[[0,0.5],[1,0.5]];portConstraint=eastwest;rounded=1;shadow=0;html=0;labelBackgroundColor=none;fontColor=#FFFFFF;" parent="zkfFHV4jXpPFQw0GAbJ--6" vertex="1">
          <mxGeometry y="66" width="160" height="26" as="geometry" />
        </mxCell>
        <mxCell id="7lo-S9fPvDPKYI1ttoRr-32" style="edgeStyle=none;curved=1;rounded=1;orthogonalLoop=1;jettySize=auto;html=1;fontSize=12;startSize=8;endSize=8;labelBackgroundColor=none;strokeColor=#182E3E;fontColor=default;" edge="1" parent="WIyWlLk6GJQsqaUBKTNV-1" source="zkfFHV4jXpPFQw0GAbJ--13">
          <mxGeometry relative="1" as="geometry">
            <mxPoint x="550" y="240" as="targetPoint" />
          </mxGeometry>
        </mxCell>
        <mxCell id="zkfFHV4jXpPFQw0GAbJ--13" value="University&#xa;(Вуз)" style="swimlane;fontStyle=0;align=center;verticalAlign=top;childLayout=stackLayout;horizontal=1;startSize=43;horizontalStack=0;resizeParent=1;resizeLast=0;collapsible=1;marginBottom=0;rounded=1;shadow=0;strokeWidth=4;labelBackgroundColor=none;fillColor=#56517E;strokeColor=#EEEEEE;fontColor=#FFFFFF;" parent="WIyWlLk6GJQsqaUBKTNV-1" vertex="1">
          <mxGeometry x="470" y="120" width="180" height="120" as="geometry">
            <mxRectangle x="340" y="380" width="170" height="26" as="alternateBounds" />
          </mxGeometry>
        </mxCell>
        <mxCell id="zkfFHV4jXpPFQw0GAbJ--14" value="#id_university  int" style="text;align=left;verticalAlign=top;spacingLeft=4;spacingRight=4;overflow=hidden;rotatable=0;points=[[0,0.5],[1,0.5]];portConstraint=eastwest;labelBackgroundColor=none;fontColor=#FFFFFF;rounded=1;" parent="zkfFHV4jXpPFQw0GAbJ--13" vertex="1">
          <mxGeometry y="43" width="180" height="26" as="geometry" />
        </mxCell>
        <mxCell id="7lo-S9fPvDPKYI1ttoRr-0" value="+name_univ varchar(30)" style="text;align=left;verticalAlign=top;spacingLeft=4;spacingRight=4;overflow=hidden;rotatable=0;points=[[0,0.5],[1,0.5]];portConstraint=eastwest;labelBackgroundColor=none;fontColor=#FFFFFF;rounded=1;" vertex="1" parent="zkfFHV4jXpPFQw0GAbJ--13">
          <mxGeometry y="69" width="180" height="26" as="geometry" />
        </mxCell>
        <mxCell id="zkfFHV4jXpPFQw0GAbJ--17" value="Department&#xa;(Кафедра)" style="swimlane;fontStyle=0;align=center;verticalAlign=top;childLayout=stackLayout;horizontal=1;startSize=40;horizontalStack=0;resizeParent=1;resizeLast=0;collapsible=1;marginBottom=0;rounded=1;shadow=0;strokeWidth=4;labelBackgroundColor=none;fillColor=#56517E;strokeColor=#EEEEEE;fontColor=#FFFFFF;" parent="WIyWlLk6GJQsqaUBKTNV-1" vertex="1">
          <mxGeometry x="680" y="330" width="190" height="110" as="geometry">
            <mxRectangle x="550" y="140" width="160" height="26" as="alternateBounds" />
          </mxGeometry>
        </mxCell>
        <mxCell id="zkfFHV4jXpPFQw0GAbJ--18" value="#id _department int" style="text;align=left;verticalAlign=top;spacingLeft=4;spacingRight=4;overflow=hidden;rotatable=0;points=[[0,0.5],[1,0.5]];portConstraint=eastwest;labelBackgroundColor=none;fontColor=#FFFFFF;rounded=1;" parent="zkfFHV4jXpPFQw0GAbJ--17" vertex="1">
          <mxGeometry y="40" width="190" height="26" as="geometry" />
        </mxCell>
        <mxCell id="zkfFHV4jXpPFQw0GAbJ--19" value="+name_department varchar(30)" style="text;align=left;verticalAlign=top;spacingLeft=4;spacingRight=4;overflow=hidden;rotatable=0;points=[[0,0.5],[1,0.5]];portConstraint=eastwest;rounded=1;shadow=0;html=0;labelBackgroundColor=none;fontColor=#FFFFFF;" parent="zkfFHV4jXpPFQw0GAbJ--17" vertex="1">
          <mxGeometry y="66" width="190" height="26" as="geometry" />
        </mxCell>
        <mxCell id="7lo-S9fPvDPKYI1ttoRr-11" value="&lt;font style=&quot;font-size: 14px;&quot;&gt;located in&lt;/font&gt;" style="text;strokeColor=none;fillColor=none;html=1;align=center;verticalAlign=middle;whiteSpace=wrap;rounded=1;fontSize=16;labelBackgroundColor=none;fontColor=#FFFFFF;rotation=45;" vertex="1" parent="WIyWlLk6GJQsqaUBKTNV-1">
          <mxGeometry x="380" y="130" width="80" height="30" as="geometry" />
        </mxCell>
        <mxCell id="7lo-S9fPvDPKYI1ttoRr-13" value="admissiun_company&#xa;(Приемная кампания)" style="swimlane;fontStyle=0;align=center;verticalAlign=top;childLayout=stackLayout;horizontal=1;startSize=43;horizontalStack=0;resizeParent=1;resizeLast=0;collapsible=1;marginBottom=0;rounded=1;shadow=0;strokeWidth=4;labelBackgroundColor=none;fillColor=#56517E;strokeColor=#EEEEEE;fontColor=#FFFFFF;" vertex="1" parent="WIyWlLk6GJQsqaUBKTNV-1">
          <mxGeometry x="750" y="50" width="180" height="140.5" as="geometry">
            <mxRectangle x="340" y="380" width="170" height="26" as="alternateBounds" />
          </mxGeometry>
        </mxCell>
        <mxCell id="7lo-S9fPvDPKYI1ttoRr-14" value="#id_admission_com  int" style="text;align=left;verticalAlign=top;spacingLeft=4;spacingRight=4;overflow=hidden;rotatable=0;points=[[0,0.5],[1,0.5]];portConstraint=eastwest;labelBackgroundColor=none;fontColor=#FFFFFF;rounded=1;" vertex="1" parent="7lo-S9fPvDPKYI1ttoRr-13">
          <mxGeometry y="43" width="180" height="26" as="geometry" />
        </mxCell>
        <mxCell id="7lo-S9fPvDPKYI1ttoRr-16" value="+start_date date" style="text;align=left;verticalAlign=top;spacingLeft=4;spacingRight=4;overflow=hidden;rotatable=0;points=[[0,0.5],[1,0.5]];portConstraint=eastwest;labelBackgroundColor=none;fontColor=#FFFFFF;rounded=1;" vertex="1" parent="7lo-S9fPvDPKYI1ttoRr-13">
          <mxGeometry y="69" width="180" height="26" as="geometry" />
        </mxCell>
        <mxCell id="7lo-S9fPvDPKYI1ttoRr-18" value="+end_date date" style="text;align=left;verticalAlign=top;spacingLeft=4;spacingRight=4;overflow=hidden;rotatable=0;points=[[0,0.5],[1,0.5]];portConstraint=eastwest;labelBackgroundColor=none;fontColor=#FFFFFF;rounded=1;" vertex="1" parent="7lo-S9fPvDPKYI1ttoRr-13">
          <mxGeometry y="95" width="180" height="26" as="geometry" />
        </mxCell>
        <mxCell id="7lo-S9fPvDPKYI1ttoRr-20" value="" style="edgeStyle=entityRelationEdgeStyle;fontSize=12;html=1;endArrow=ERzeroToMany;startArrow=ERmandOne;rounded=1;startSize=8;endSize=8;curved=1;entryX=-0.009;entryY=0.177;entryDx=0;entryDy=0;labelBackgroundColor=none;strokeColor=#FFFFFF;fontColor=default;strokeWidth=3;entryPerimeter=0;" edge="1" parent="WIyWlLk6GJQsqaUBKTNV-1" target="7lo-S9fPvDPKYI1ttoRr-16">
          <mxGeometry width="100" height="100" relative="1" as="geometry">
            <mxPoint x="650" y="190" as="sourcePoint" />
            <mxPoint x="750" y="111.5" as="targetPoint" />
            <Array as="points">
              <mxPoint x="760" y="140" />
            </Array>
          </mxGeometry>
        </mxCell>
        <mxCell id="7lo-S9fPvDPKYI1ttoRr-21" value="" style="edgeStyle=entityRelationEdgeStyle;fontSize=12;html=1;endArrow=ERzeroToMany;startArrow=ERzeroToOne;rounded=1;startSize=8;endSize=8;curved=1;entryX=-0.017;entryY=0.923;entryDx=0;entryDy=0;entryPerimeter=0;labelBackgroundColor=none;strokeColor=#FFFFFF;fontColor=default;strokeWidth=3;" edge="1" parent="WIyWlLk6GJQsqaUBKTNV-1" target="zkfFHV4jXpPFQw0GAbJ--14">
          <mxGeometry width="100" height="100" relative="1" as="geometry">
            <mxPoint x="355" y="120" as="sourcePoint" />
            <mxPoint x="455" y="20" as="targetPoint" />
          </mxGeometry>
        </mxCell>
        <mxCell id="7lo-S9fPvDPKYI1ttoRr-22" value="Discipline&#xa;(Направление)" style="swimlane;fontStyle=0;align=center;verticalAlign=top;childLayout=stackLayout;horizontal=1;startSize=40;horizontalStack=0;resizeParent=1;resizeLast=0;collapsible=1;marginBottom=0;rounded=1;shadow=0;strokeWidth=4;labelBackgroundColor=none;fillColor=#56517E;strokeColor=#EEEEEE;fontColor=#FFFFFF;" vertex="1" parent="WIyWlLk6GJQsqaUBKTNV-1">
          <mxGeometry x="590" y="520" width="230" height="130" as="geometry">
            <mxRectangle x="550" y="140" width="160" height="26" as="alternateBounds" />
          </mxGeometry>
        </mxCell>
        <mxCell id="7lo-S9fPvDPKYI1ttoRr-23" value="#id _discipline  int" style="text;align=left;verticalAlign=top;spacingLeft=4;spacingRight=4;overflow=hidden;rotatable=0;points=[[0,0.5],[1,0.5]];portConstraint=eastwest;labelBackgroundColor=none;fontColor=#FFFFFF;rounded=1;" vertex="1" parent="7lo-S9fPvDPKYI1ttoRr-22">
          <mxGeometry y="40" width="230" height="26" as="geometry" />
        </mxCell>
        <mxCell id="7lo-S9fPvDPKYI1ttoRr-25" value="+Код направления varchar(10)" style="text;align=left;verticalAlign=top;spacingLeft=4;spacingRight=4;overflow=hidden;rotatable=0;points=[[0,0.5],[1,0.5]];portConstraint=eastwest;labelBackgroundColor=none;fontColor=#FFFFFF;rounded=1;" vertex="1" parent="7lo-S9fPvDPKYI1ttoRr-22">
          <mxGeometry y="66" width="230" height="24" as="geometry" />
        </mxCell>
        <mxCell id="7lo-S9fPvDPKYI1ttoRr-52" value="+name_discipline varchar(255)" style="text;align=left;verticalAlign=top;spacingLeft=4;spacingRight=4;overflow=hidden;rotatable=0;points=[[0,0.5],[1,0.5]];portConstraint=eastwest;labelBackgroundColor=none;fontColor=#FFFFFF;rounded=1;" vertex="1" parent="7lo-S9fPvDPKYI1ttoRr-22">
          <mxGeometry y="90" width="230" height="24" as="geometry" />
        </mxCell>
        <mxCell id="7lo-S9fPvDPKYI1ttoRr-27" value="State_Exam&#xa;(ЕГЭ)" style="swimlane;fontStyle=0;align=center;verticalAlign=top;childLayout=stackLayout;horizontal=1;startSize=40;horizontalStack=0;resizeParent=1;resizeLast=0;collapsible=1;marginBottom=0;rounded=1;shadow=0;strokeWidth=4;labelBackgroundColor=none;fillColor=#56517E;strokeColor=#EEEEEE;fontColor=#FFFFFF;" vertex="1" parent="WIyWlLk6GJQsqaUBKTNV-1">
          <mxGeometry x="250" y="530" width="190" height="110" as="geometry">
            <mxRectangle x="550" y="140" width="160" height="26" as="alternateBounds" />
          </mxGeometry>
        </mxCell>
        <mxCell id="7lo-S9fPvDPKYI1ttoRr-28" value="#id ЕГЭ (int)" style="text;align=left;verticalAlign=top;spacingLeft=4;spacingRight=4;overflow=hidden;rotatable=0;points=[[0,0.5],[1,0.5]];portConstraint=eastwest;labelBackgroundColor=none;fontColor=#FFFFFF;rounded=1;" vertex="1" parent="7lo-S9fPvDPKYI1ttoRr-27">
          <mxGeometry y="40" width="190" height="26" as="geometry" />
        </mxCell>
        <mxCell id="7lo-S9fPvDPKYI1ttoRr-29" value="+Название ЕГЭ varchar(20)" style="text;align=left;verticalAlign=top;spacingLeft=4;spacingRight=4;overflow=hidden;rotatable=0;points=[[0,0.5],[1,0.5]];portConstraint=eastwest;rounded=1;shadow=0;html=0;labelBackgroundColor=none;fontColor=#FFFFFF;" vertex="1" parent="7lo-S9fPvDPKYI1ttoRr-27">
          <mxGeometry y="66" width="190" height="26" as="geometry" />
        </mxCell>
        <mxCell id="7lo-S9fPvDPKYI1ttoRr-33" value="" style="edgeStyle=orthogonalEdgeStyle;fontSize=12;html=1;endArrow=ERoneToMany;startArrow=ERmandOne;rounded=1;startSize=8;endSize=8;curved=1;labelBackgroundColor=none;fontColor=default;strokeWidth=3;strokeColor=#FFFFFF;" edge="1" parent="WIyWlLk6GJQsqaUBKTNV-1">
          <mxGeometry width="100" height="100" relative="1" as="geometry">
            <mxPoint x="550" y="240" as="sourcePoint" />
            <mxPoint x="344" y="320" as="targetPoint" />
            <Array as="points">
              <mxPoint x="484" y="280" />
              <mxPoint x="345" y="280" />
            </Array>
          </mxGeometry>
        </mxCell>
        <mxCell id="7lo-S9fPvDPKYI1ttoRr-34" value="" style="edgeStyle=entityRelationEdgeStyle;fontSize=12;html=1;endArrow=ERzeroToMany;startArrow=ERzeroToOne;rounded=1;startSize=8;endSize=8;curved=1;exitX=1;exitY=0.5;exitDx=0;exitDy=0;entryX=0.005;entryY=0.269;entryDx=0;entryDy=0;entryPerimeter=0;labelBackgroundColor=none;strokeColor=#FFFFFF;fontColor=default;strokeWidth=3;" edge="1" parent="WIyWlLk6GJQsqaUBKTNV-1" source="zkfFHV4jXpPFQw0GAbJ--6" target="zkfFHV4jXpPFQw0GAbJ--18">
          <mxGeometry width="100" height="100" relative="1" as="geometry">
            <mxPoint x="530" y="350" as="sourcePoint" />
            <mxPoint x="630" y="250" as="targetPoint" />
          </mxGeometry>
        </mxCell>
        <mxCell id="7lo-S9fPvDPKYI1ttoRr-35" value="" style="fontSize=12;html=1;endArrow=ERoneToMany;startArrow=ERmandOne;rounded=1;startSize=8;endSize=8;edgeStyle=orthogonalEdgeStyle;entryX=1;entryY=0.75;entryDx=0;entryDy=0;labelBackgroundColor=none;strokeColor=#FFFFFF;fontColor=default;strokeWidth=3;" edge="1" parent="WIyWlLk6GJQsqaUBKTNV-1" target="7lo-S9fPvDPKYI1ttoRr-38">
          <mxGeometry width="100" height="100" relative="1" as="geometry">
            <mxPoint x="760" y="440" as="sourcePoint" />
            <mxPoint x="690" y="510" as="targetPoint" />
            <Array as="points">
              <mxPoint x="760" y="480" />
              <mxPoint x="850" y="480" />
              <mxPoint x="850" y="825" />
            </Array>
          </mxGeometry>
        </mxCell>
        <mxCell id="7lo-S9fPvDPKYI1ttoRr-36" value="" style="fontSize=12;html=1;endArrow=ERzeroToMany;endFill=1;startArrow=ERzeroToMany;rounded=1;startSize=8;endSize=8;entryX=0;entryY=0.5;entryDx=0;entryDy=0;exitX=1.005;exitY=0.231;exitDx=0;exitDy=0;exitPerimeter=0;labelBackgroundColor=none;strokeColor=#FFFFFF;fontColor=default;strokeWidth=3;" edge="1" parent="WIyWlLk6GJQsqaUBKTNV-1" source="7lo-S9fPvDPKYI1ttoRr-29" target="7lo-S9fPvDPKYI1ttoRr-25">
          <mxGeometry width="100" height="100" relative="1" as="geometry">
            <mxPoint x="450" y="600" as="sourcePoint" />
            <mxPoint x="570" y="600" as="targetPoint" />
          </mxGeometry>
        </mxCell>
        <mxCell id="7lo-S9fPvDPKYI1ttoRr-38" value="Specialization&#xa;(Направленности)" style="swimlane;fontStyle=0;align=center;verticalAlign=top;childLayout=stackLayout;horizontal=1;startSize=40;horizontalStack=0;resizeParent=1;resizeLast=0;collapsible=1;marginBottom=0;rounded=1;shadow=0;strokeWidth=4;labelBackgroundColor=none;fillColor=#56517E;strokeColor=#EEEEEE;fontColor=#FFFFFF;" vertex="1" parent="WIyWlLk6GJQsqaUBKTNV-1">
          <mxGeometry x="430" y="750" width="230" height="100" as="geometry">
            <mxRectangle x="550" y="140" width="160" height="26" as="alternateBounds" />
          </mxGeometry>
        </mxCell>
        <mxCell id="7lo-S9fPvDPKYI1ttoRr-39" value="#id _specialist  int" style="text;align=left;verticalAlign=top;spacingLeft=4;spacingRight=4;overflow=hidden;rotatable=0;points=[[0,0.5],[1,0.5]];portConstraint=eastwest;labelBackgroundColor=none;fontColor=#FFFFFF;rounded=1;" vertex="1" parent="7lo-S9fPvDPKYI1ttoRr-38">
          <mxGeometry y="40" width="230" height="26" as="geometry" />
        </mxCell>
        <mxCell id="7lo-S9fPvDPKYI1ttoRr-40" value="+name_specialist varchar(30)" style="text;align=left;verticalAlign=top;spacingLeft=4;spacingRight=4;overflow=hidden;rotatable=0;points=[[0,0.5],[1,0.5]];portConstraint=eastwest;labelBackgroundColor=none;fontColor=#FFFFFF;rounded=1;" vertex="1" parent="7lo-S9fPvDPKYI1ttoRr-38">
          <mxGeometry y="66" width="230" height="26" as="geometry" />
        </mxCell>
        <mxCell id="7lo-S9fPvDPKYI1ttoRr-42" value="" style="edgeStyle=orthogonalEdgeStyle;fontSize=12;html=1;endArrow=ERzeroToMany;startArrow=ERmandOne;rounded=0;startSize=8;endSize=8;strokeWidth=3;strokeColor=#FFFFFF;" edge="1" parent="WIyWlLk6GJQsqaUBKTNV-1">
          <mxGeometry width="100" height="100" relative="1" as="geometry">
            <mxPoint x="700" y="650" as="sourcePoint" />
            <mxPoint x="540" y="750" as="targetPoint" />
            <Array as="points">
              <mxPoint x="700" y="690" />
              <mxPoint x="541" y="690" />
            </Array>
          </mxGeometry>
        </mxCell>
        <mxCell id="7lo-S9fPvDPKYI1ttoRr-44" value="&lt;font style=&quot;font-size: 14px;&quot; color=&quot;#ffffff&quot;&gt;conducts&lt;/font&gt;" style="text;strokeColor=none;fillColor=none;html=1;align=center;verticalAlign=middle;whiteSpace=wrap;rounded=0;fontSize=16;rotation=-45;" vertex="1" parent="WIyWlLk6GJQsqaUBKTNV-1">
          <mxGeometry x="660" y="130" width="60" height="30" as="geometry" />
        </mxCell>
        <mxCell id="7lo-S9fPvDPKYI1ttoRr-45" value="&lt;font style=&quot;font-size: 14px;&quot; color=&quot;#ffffff&quot;&gt;falculties in uni&lt;/font&gt;" style="text;strokeColor=none;fillColor=none;html=1;align=center;verticalAlign=middle;whiteSpace=wrap;rounded=0;fontSize=16;" vertex="1" parent="WIyWlLk6GJQsqaUBKTNV-1">
          <mxGeometry x="380" y="250" width="120" height="30" as="geometry" />
        </mxCell>
        <mxCell id="7lo-S9fPvDPKYI1ttoRr-46" value="&lt;font style=&quot;font-size: 14px;&quot; color=&quot;#ffffff&quot;&gt;consists of&lt;/font&gt;" style="text;strokeColor=none;fillColor=none;html=1;align=center;verticalAlign=middle;whiteSpace=wrap;rounded=0;fontSize=16;" vertex="1" parent="WIyWlLk6GJQsqaUBKTNV-1">
          <mxGeometry x="510" y="350" width="80" height="30" as="geometry" />
        </mxCell>
        <mxCell id="7lo-S9fPvDPKYI1ttoRr-47" value="&lt;font style=&quot;font-size: 14px;&quot; color=&quot;#ffffff&quot;&gt;comprises&lt;/font&gt;" style="text;strokeColor=none;fillColor=none;html=1;align=center;verticalAlign=middle;whiteSpace=wrap;rounded=0;fontSize=16;" vertex="1" parent="WIyWlLk6GJQsqaUBKTNV-1">
          <mxGeometry x="850" y="585" width="60" height="30" as="geometry" />
        </mxCell>
        <mxCell id="7lo-S9fPvDPKYI1ttoRr-48" value="&lt;font style=&quot;font-size: 14px;&quot; color=&quot;#ffffff&quot;&gt;needed pass exams&lt;/font&gt;" style="text;strokeColor=none;fillColor=none;html=1;align=center;verticalAlign=middle;whiteSpace=wrap;rounded=0;fontSize=16;" vertex="1" parent="WIyWlLk6GJQsqaUBKTNV-1">
          <mxGeometry x="450" y="570" width="130" height="30" as="geometry" />
        </mxCell>
        <mxCell id="7lo-S9fPvDPKYI1ttoRr-49" value="&lt;font style=&quot;font-size: 14px;&quot; color=&quot;#ffffff&quot;&gt;ЕГЭ needed&lt;/font&gt;" style="text;strokeColor=none;fillColor=none;html=1;align=center;verticalAlign=middle;whiteSpace=wrap;rounded=0;fontSize=16;" vertex="1" parent="WIyWlLk6GJQsqaUBKTNV-1">
          <mxGeometry x="470" y="600" width="80" height="30" as="geometry" />
        </mxCell>
        <mxCell id="7lo-S9fPvDPKYI1ttoRr-50" value="&lt;font color=&quot;#ffffff&quot;&gt;has&lt;/font&gt;" style="text;strokeColor=none;fillColor=none;html=1;align=center;verticalAlign=middle;whiteSpace=wrap;rounded=0;fontSize=16;" vertex="1" parent="WIyWlLk6GJQsqaUBKTNV-1">
          <mxGeometry x="590" y="660" width="60" height="40" as="geometry" />
        </mxCell>
      </root>
    </mxGraphModel>
  </diagram>
</mxfile>
